<?plantuml 1.2026.2?><svg xmlns="http://www.w3.org/2000/svg" xmlns:xlink="http://www.w3.org/1999/xlink" contentStyleType="text/css" data-diagram-type="DESCRIPTION" height="230px" preserveAspectRatio="none" style="width:857px;height:230px;" version="1.1" viewBox="0 0 857 230" width="857px" zoomAndPan="magnify"><defs/><g><!--cluster PostgreSQL--><g class="cluster" data-qualified-name="PostgreSQL" data-source-line="13" id="ent0004"><path d="M6,16 C6,6 223.5,6 223.5,6 C223.5,6 441,6 441,16 L441,203.46 C441,213.46 223.5,213.46 223.5,213.46 C223.5,213.46 6,213.46 6,203.46 L6,16" fill="none" style="stroke:#181818;stroke-width:1;"/><path d="M6,16 C6,26 223.5,26 223.5,26 C223.5,26 441,26 441,16" fill="none" style="stroke:#181818;stroke-width:1;"/><text fill="#000000" font-family="sans-serif" font-size="14" font-weight="bold" lengthAdjust="spacing" textLength="82.5918" x="182.2041" y="41.5352">PostgreSQL</text></g><!--cluster InputNode--><g class="cluster" data-qualified-name="PostgreSQL.InputNode" data-source-line="14" id="ent0005"><polygon fill="none" points="30,74,40,64,214,64,214,179.46,204,189.46,30,189.46,30,74" style="stroke:#181818;stroke-width:1;"/><line style="stroke:#181818;stroke-width:1;" x1="204" x2="214" y1="74" y2="64"/><line style="stroke:#181818;stroke-width:1;" x1="30" x2="204" y1="74" y2="74"/><line style="stroke:#181818;stroke-width:1;" x1="204" x2="204" y1="74" y2="189.46"/><text fill="#000000" font-family="sans-serif" font-size="14" font-weight="bold" lengthAdjust="spacing" textLength="94.0352" x="70.9824" y="90.5352">System input</text></g><!--cluster LogicNode--><g class="cluster" data-qualified-name="PostgreSQL.LogicNode" data-source-line="18" id="ent0007"><polygon fill="none" points="238,74,248,64,417,64,417,179.46,407,189.46,238,189.46,238,74" style="stroke:#181818;stroke-width:1;"/><line style="stroke:#181818;stroke-width:1;" x1="407" x2="417" y1="74" y2="64"/><line style="stroke:#181818;stroke-width:1;" x1="238" x2="407" y1="74" y2="74"/><line style="stroke:#181818;stroke-width:1;" x1="407" x2="407" y1="74" y2="189.46"/><text fill="#000000" font-family="sans-serif" font-size="14" font-weight="bold" lengthAdjust="spacing" textLength="103.0586" x="271.9707" y="90.5352">Business logic</text></g><!--entity Input--><g class="entity" data-qualified-name="PostgreSQL.InputNode.Input" data-source-line="15" id="ent0006"><rect fill="#F1F1F1" height="69.4648" rx="2.5" ry="2.5" style="stroke:#181818;stroke-width:0.5;" width="151.4756" x="46.26" y="104"/><text fill="#000000" font-family="sans-serif" font-size="14" lengthAdjust="spacing" textLength="98.916" x="56.26" y="127.5352">input relations</text><text fill="#000000" font-family="sans-serif" font-size="14" lengthAdjust="spacing" textLength="131.4756" x="56.26" y="144.0234">commands, events,</text><text fill="#000000" font-family="sans-serif" font-size="14" lengthAdjust="spacing" textLength="114.8916" x="56.26" y="160.5117">attempts, results</text></g><!--entity Views--><g class="entity" data-qualified-name="PostgreSQL.LogicNode.Views" data-source-line="19" id="ent0008"><rect fill="#F1F1F1" height="69.4648" rx="2.5" ry="2.5" style="stroke:#181818;stroke-width:0.5;" width="128.6162" x="262.69" y="104"/><text fill="#000000" font-family="sans-serif" font-size="14" lengthAdjust="spacing" textLength="37.0166" x="272.69" y="127.5352">views</text><text fill="#000000" font-family="sans-serif" font-size="14" lengthAdjust="spacing" textLength="91.041" x="272.69" y="144.0234">current state,</text><text fill="#000000" font-family="sans-serif" font-size="14" lengthAdjust="spacing" textLength="108.6162" x="272.69" y="160.5117">pending actions</text></g><!--entity World--><g class="entity" data-qualified-name="World" data-source-line="10" id="ent0002"><ellipse cx="677.0043" cy="108.98" fill="#F1F1F1" rx="8" ry="8" style="stroke:#181818;stroke-width:0.5;"/><path d="M677.0043,116.98 L677.0043,143.98 M664.0043,124.98 L690.0043,124.98 M677.0043,143.98 L664.0043,158.98 M677.0043,143.98 L690.0043,158.98" fill="none" style="stroke:#181818;stroke-width:0.5;"/><text fill="#000000" font-family="sans-serif" font-size="14" lengthAdjust="spacing" textLength="97.8086" x="628.1" y="174.0152">External world</text></g><!--entity PostgREST--><g class="entity" data-qualified-name="PostgREST" data-source-line="11" id="ent0003"><rect fill="#F1F1F1" height="36.4883" rx="2.5" ry="2.5" style="stroke:#181818;stroke-width:0.5;" width="90.2734" x="760.86" y="120.48"/><text fill="#000000" font-family="sans-serif" font-size="14" lengthAdjust="spacing" textLength="70.2734" x="770.86" y="144.0152">PostgREST</text></g><!--entity Effectors--><g class="entity" data-qualified-name="Effectors" data-source-line="25" id="ent0010"><polygon fill="none" points="456.97,109,466.97,99,593.0286,99,593.0286,168.4648,583.0286,178.4648,456.97,178.4648,456.97,109" style="stroke:#181818;stroke-width:1;"/><line style="stroke:#181818;stroke-width:1;" x1="583.0286" x2="593.0286" y1="109" y2="99"/><line style="stroke:#181818;stroke-width:1;" x1="456.97" x2="583.0286" y1="109" y2="109"/><line style="stroke:#181818;stroke-width:1;" x1="583.0286" x2="583.0286" y1="109" y2="178.4648"/><text fill="#000000" font-family="sans-serif" font-size="14" lengthAdjust="spacing" textLength="59.7666" x="471.97" y="132.5352">effectors</text><text fill="#000000" font-family="sans-serif" font-size="14" lengthAdjust="spacing" textLength="96.0586" x="471.97" y="149.0234">workers, jobs,</text><text fill="#000000" font-family="sans-serif" font-size="14" lengthAdjust="spacing" textLength="81.6689" x="471.97" y="165.5117">integrations</text></g><!--link Input to Views--><g class="link" data-entity-1="ent0006" data-entity-2="ent0008" data-link-type="dependency" data-source-line="22" id="lnk9"><path d="M198.04,138.46 C219.24,138.46 236.05,138.46 256.51,138.46" fill="none" id="Input-to-Views" style="stroke:#181818;stroke-width:1;"/><polygon fill="#181818" points="262.51,138.46,253.51,134.46,257.51,138.46,253.51,142.46,262.51,138.46" style="stroke:#181818;stroke-width:1;"/><text fill="#000000" font-family="sans-serif" font-size="13" lengthAdjust="spacing" textLength="38.4731" x="221.28" y="152.0284">derive</text></g><!--link World to PostgREST--><g class="link" data-entity-1="ent0002" data-entity-2="ent0003" data-link-type="dependency" data-source-line="27" id="lnk11"><path d="M726.14,138.46 C737.39,138.46 743.3,138.46 754.39,138.46" fill="none" id="World-to-PostgREST" style="stroke:#181818;stroke-width:1;"/><polygon fill="#181818" points="760.39,138.46,751.39,134.46,755.39,138.46,751.39,142.46,760.39,138.46" style="stroke:#181818;stroke-width:1;"/><text fill="#000000" font-family="sans-serif" font-size="13" lengthAdjust="spacing" textLength="109.5288" x="688.77" y="152.0284">facts from clients</text></g><!--link PostgREST to Input--><g class="link" data-entity-1="ent0003" data-entity-2="ent0006" data-link-type="dependency" data-source-line="28" id="lnk12"><path d="M806,157.31 C806,174.19 806,196.46 806,196.46 C806,196.46 122,196.46 122,196.46 C122,196.46 122,191.8 122,179.64" fill="none" id="PostgREST-to-Input" style="stroke:#181818;stroke-width:1;"/><polygon fill="#181818" points="122,173.64,118,182.64,122,178.64,126,182.64,122,173.64" style="stroke:#181818;stroke-width:1;"/><text fill="#000000" font-family="sans-serif" font-size="13" lengthAdjust="spacing" textLength="70.0972" x="401.17" y="193.0284">insert facts</text></g><!--link Views to Effectors--><g class="link" data-entity-1="ent0008" data-entity-2="ent0010" data-link-type="dependency" data-source-line="29" id="lnk13"><path d="M391.56,138.46 C412.44,138.46 429.65,138.46 450.78,138.46" fill="none" id="Views-to-Effectors" style="stroke:#181818;stroke-width:1;"/><polygon fill="#181818" points="456.78,138.46,447.78,134.46,451.78,138.46,447.78,142.46,456.78,138.46" style="stroke:#181818;stroke-width:1;"/><text fill="#000000" font-family="sans-serif" font-size="13" lengthAdjust="spacing" textLength="71.4238" x="388.67" y="152.0284">select work</text></g><!--link Effectors to World--><g class="link" data-entity-1="ent0010" data-entity-2="ent0002" data-link-type="dependency" data-source-line="30" id="lnk14"><path d="M593.44,138.46 C605.1,138.46 611,138.46 622.03,138.46" fill="none" id="Effectors-to-World" style="stroke:#181818;stroke-width:1;"/><polygon fill="#181818" points="628.03,138.46,619.03,134.46,623.03,138.46,619.03,142.46,628.03,138.46" style="stroke:#181818;stroke-width:1;"/><text fill="#000000" font-family="sans-serif" font-size="13" lengthAdjust="spacing" textLength="100.896" x="560.74" y="152.0284">external actions</text></g><!--reverse link Input to Effectors--><g class="link" data-entity-1="ent0006" data-entity-2="ent0010" data-link-type="dependency" data-source-line="31" id="lnk16"><path d="M122,97.77 C122,85.84 122,81.46 122,81.46 C122,81.46 525,81.46 525,81.46 C525,81.46 525,89.02 525,98.64" fill="none" id="Input-backto-Effectors" style="stroke:#181818;stroke-width:1;"/><polygon fill="#181818" points="122,103.77,126,94.77,122,98.77,118,94.77,122,103.77" style="stroke:#181818;stroke-width:1;"/><text fill="#000000" font-family="sans-serif" font-size="13" lengthAdjust="spacing" textLength="100.7754" x="219.94" y="95.0284">record attempts</text><text fill="#000000" font-family="sans-serif" font-size="13" lengthAdjust="spacing" textLength="70.0464" x="235.3045" y="110.3389">and results</text></g><?plantuml-src VLAnJiCm4Dtz5QVCT63jm03gW8GGq0gMBcvo3IREkRgx52h4ltDschO3OhlulRptxjdI1TfvzZriVDsrd0Pgxb9C3CgUn20aTN9YnK2eXnr2OdrFxWAXr21yE_XNoD343VBgFTGTeGXSkn_dVAr6h1PVYam-mcVYs5JW1Txov1XhzTH6XASashuibYld6gz-umMXAeUCo-U7gYGeKQhbGHHxi7o35gtxF3rECG7EgWN9bAgm3ObUGo9PKvtwtbCZLu1xsq2krkJLT7Ss6a-6g5APd6qn6TyE4ifkCRMXBjOFUVhJ-ZNWfnJhVPxCSE1S5OXwHNFR8JM1Mh2ESgAJrvXvnhEReyOShDYmnrne2RBORZ4NEyhZzBKcgxT3jlmVQPCN2gJOiZ_gkzBvg7ogszItba1Wowc7EeRSXJl3XJr6cblbWgpZ3suCL_1pe3a8HflpJNVkV5vee_ySS7eEnzKlUSE5dPLfZmgcQx4BecQw6lSB?></g></svg>